<svg xmlns="http://www.w3.org/2000/svg" viewBox="0 0 64 64" role="img" aria-label="CoolXuZhi">
  <defs>
    <linearGradient id="g" x1="0" y1="0" x2="1" y2="1">
      <stop offset="0" stop-color="#ff4612"/>
      <stop offset="1" stop-color="#e26e41"/>
    </linearGradient>
  </defs>
  <rect x="4" y="4" width="56" height="56" rx="14" fill="url(#g)"/>
  <path d="M20 36c0-8 5-14 12-14 4 0 7 1 9 4l-4 3c-1-2-3-3-5-3-4 0-7 4-7 10s3 10 7 10c3 0 5-1 6-4l4 2c-2 5-6 7-10 7-7 0-12-6-12-15z" fill="#ffffff" opacity="0.95"/>
</svg>
